HIERARCHY
ROOT joint_Root
{
	OFFSET 0.0 0.0 0.0
	CHANNELS 6 Xposition Yposition Zposition Zrotation Xrotation Yrotation 
	JOINT Hips
	{
		OFFSET 4.5925 91.4895 -427.239
		CHANNELS 6 Xposition Yposition Zposition Zrotation Xrotation Yrotation 
		JOINT Spine
		{
			OFFSET 15.7357 0.0 0.0
			CHANNELS 6 Xposition Yposition Zposition Zrotation Xrotation Yrotation 
			JOINT Chest
			{
				OFFSET 8.98455 -0.406207 0.0
				CHANNELS 6 Xposition Yposition Zposition Zrotation Xrotation Yrotation 
				JOINT Neck
				{
					OFFSET 16.3773 0.0 0.0
					CHANNELS 6 Xposition Yposition Zposition Zrotation Xrotation Yrotation 
					JOINT Head
					{
						OFFSET 6.45672 0.0 0.0
						CHANNELS 6 Xposition Yposition Zposition Zrotation Xrotation Yrotation 
						End Site
						{
							OFFSET 0.0 0.0 0.0
						}
					}
				}
				JOINT Shoulder_L
				{
					OFFSET 12.9942 -0.242716 4.98039
					CHANNELS 6 Xposition Yposition Zposition Zrotation Xrotation Yrotation 
					JOINT UpperArm_L
					{
						OFFSET 5.34809 0.0 0.0
						CHANNELS 6 Xposition Yposition Zposition Zrotation Xrotation Yrotation 
						JOINT LowerArm_L
						{
							OFFSET 24.3286 1.87007e-05 0.0
							CHANNELS 6 Xposition Yposition Zposition Zrotation Xrotation Yrotation 
							JOINT Hand_L
							{
								OFFSET 22.2916 0.0 0.0
								CHANNELS 6 Xposition Yposition Zposition Zrotation Xrotation Yrotation 
								End Site
								{
									OFFSET 0.0 0.0 0.0
								}
							}
						}
					}
				}
				JOINT Shoulder_R
				{
					OFFSET 12.9945 -0.242716 -4.98039
					CHANNELS 6 Xposition Yposition Zposition Zrotation Xrotation Yrotation 
					JOINT UpperArm_R
					{
						OFFSET -5.34813 0.0 0.0
						CHANNELS 6 Xposition Yposition Zposition Zrotation Xrotation Yrotation 
						JOINT LowerArm_R
						{
							OFFSET -24.3289 0.000322201 0.0
							CHANNELS 6 Xposition Yposition Zposition Zrotation Xrotation Yrotation 
							JOINT Hand_R
							{
								OFFSET -22.2915 -0.000108084 0.0
								CHANNELS 6 Xposition Yposition Zposition Zrotation Xrotation Yrotation 
								End Site
								{
									OFFSET 0.0 0.0 0.0
								}
							}
						}
					}
				}
			}
		}
		JOINT UpperLeg_L
		{
			OFFSET -2.19248 -6.46944 0.0
			CHANNELS 6 Xposition Yposition Zposition Zrotation Xrotation Yrotation 
			JOINT LowerLeg_L
			{
				OFFSET 39.0811 0.0 -1.23785e-05
				CHANNELS 6 Xposition Yposition Zposition Zrotation Xrotation Yrotation 
				JOINT Foot_L
				{
					OFFSET 40.9854 0.0 -1.26872e-05
					CHANNELS 6 Xposition Yposition Zposition Zrotation Xrotation Yrotation 
					JOINT Toes_L
					{
						OFFSET 11.7543 0.0 0.0
						CHANNELS 6 Xposition Yposition Zposition Zrotation Xrotation Yrotation 
						End Site
						{
							OFFSET 0.0 0.0 0.0
						}
					}
				}
			}
		}
		JOINT UpperLeg_R
		{
			OFFSET -2.19251 6.46944 0.0
			CHANNELS 6 Xposition Yposition Zposition Zrotation Xrotation Yrotation 
			JOINT LowerLeg_R
			{
				OFFSET -39.0811 -0.00228153 -0.0401928
				CHANNELS 6 Xposition Yposition Zposition Zrotation Xrotation Yrotation 
				JOINT Foot_R
				{
					OFFSET -40.9854 0.0 0.0
					CHANNELS 6 Xposition Yposition Zposition Zrotation Xrotation Yrotation 
					JOINT Toes_R
					{
						OFFSET -11.7543 0.0 0.0
						CHANNELS 6 Xposition Yposition Zposition Zrotation Xrotation Yrotation 
						End Site
						{
							OFFSET 0.0 0.0 0.0
						}
					}
				}
			}
		}
	}
}
MOTION
Frames:	6
Frame Time:	0.0333333
0.000000 0.000000 0.000000 0.000000 0.000000 -0.000000 -91.582600 90.137700 180.861000 65.833000 83.532800 22.400000 15.735700 0.000005 -0.000001 62.791300 84.386300 -60.743700 8.984550 -0.406207 -0.000000 2.324860 -5.226920 4.199590 16.377300 -0.000001 -0.000001 -3.901630 -3.001240 1.430640 6.456720 -0.000001 -0.000000 -10.905600 0.402997 -0.738335 12.994200 -0.242716 4.980390 -90.761900 2.860260 -75.077600 5.348090 -0.000007 -0.000001 -61.710700 44.592500 -20.750500 24.328600 0.000019 0.000005 9.924440 17.559600 -30.111700 22.291600 -0.000001 0.000005 9.636120 5.261510 1.125150 12.994500 -0.242716 -4.980390 88.016000 8.330110 -76.552100 -5.348130 -0.000001 -0.000004 -64.970000 16.808900 11.183100 -24.328900 0.000322 -0.000009 0.592749 2.776560 -12.076400 -22.291500 -0.000108 -0.000004 15.516700 5.343440 -1.180940 -2.192480 -6.469440 -0.000000 -177.335000 -13.877500 0.696128 39.081100 -0.000007 -0.000012 0.008172 -0.014443 29.500500 40.985400 -0.000006 -0.000013 4.617140 2.603160 -71.877000 11.754300 -0.000000 0.000003 -0.018074 -0.156388 -22.962900 -2.192510 6.469440 -0.000001 -177.924000 11.638600 152.561000 -39.081100 -0.002282 -0.040193 0.023921 -0.018149 48.714800 -40.985400 0.000008 0.000006 3.483890 1.316500 -61.378500 -11.754300 -0.000006 -0.000006 -0.021522 -0.175575 -23.749400
0.000000 0.000000 0.000000 0.000000 0.000000 -0.000000 -89.078600 89.860600 181.558000 61.046400 85.287000 26.484900 15.735700 0.000005 -0.000001 61.225600 84.428500 -59.187800 8.984550 -0.406207 -0.000000 2.110720 -5.460710 4.174850 16.377300 -0.000001 -0.000001 -3.874100 -3.160290 1.728140 6.456720 -0.000001 -0.000000 -10.556700 0.207555 0.350048 12.994200 -0.242716 4.980390 -90.757500 2.804470 -74.878400 5.348090 -0.000007 -0.000001 -61.524400 45.564000 -19.651200 24.328600 0.000019 0.000005 10.493900 16.942400 -32.441100 22.291600 -0.000001 0.000005 8.609330 5.273870 0.790116 12.994500 -0.242716 -4.980390 88.037500 8.012670 -76.189600 -5.348130 -0.000001 -0.000004 -65.194900 16.077500 12.470600 -24.328900 0.000322 -0.000009 0.610963 2.993740 -11.560600 -22.291500 -0.000108 -0.000004 15.492000 5.340470 -1.092770 -2.192480 -6.469440 -0.000000 -176.778000 -12.933400 1.643860 39.081100 -0.000007 -0.000012 0.002196 -0.003909 29.318900 40.985400 -0.000006 -0.000013 4.096720 3.909190 -71.521700 11.754300 -0.000000 0.000003 -0.025884 -0.197952 -24.677500 -2.192510 6.469440 -0.000001 -176.618000 12.980500 151.400000 -39.081100 -0.002282 -0.040193 0.012664 -0.010684 41.307200 -40.985400 0.000008 0.000006 2.359280 4.157460 -62.392000 -11.754300 -0.000006 -0.000006 -0.022589 -0.181230 -23.982700
0.000000 0.000000 0.000000 0.000000 0.000000 -0.000000 -86.284200 89.324000 182.374000 54.275800 86.555400 32.948700 15.735700 0.000005 -0.000001 61.475600 84.454100 -59.452900 8.984550 -0.406207 -0.000000 2.086840 -5.393390 4.142110 16.377300 -0.000001 -0.000001 -3.667330 -3.154360 1.983870 6.456720 -0.000001 -0.000000 -10.195700 -0.154244 1.646090 12.994200 -0.242716 4.980390 -90.795500 2.826530 -74.275600 5.348090 -0.000007 -0.000001 -61.284200 46.135500 -18.918200 24.328600 0.000019 0.000005 10.902900 16.830100 -33.634900 22.291600 -0.000001 0.000005 7.125210 5.286890 0.437493 12.994500 -0.242716 -4.980390 88.008400 8.097490 -76.132800 -5.348130 -0.000001 -0.000004 -65.222900 15.155400 13.028900 -24.328900 0.000322 -0.000009 0.608821 3.412190 -10.142800 -22.291500 -0.000108 -0.000004 15.223700 5.324990 -0.639328 -2.192480 -6.469440 -0.000000 -175.879000 -12.231900 2.758570 39.081100 -0.000007 -0.000012 -0.004747 0.008197 30.078700 40.985400 -0.000006 -0.000013 3.267530 5.159810 -71.429000 11.754300 -0.000000 0.000003 -0.037956 -0.251869 -26.917500 -2.192510 6.469440 -0.000001 -174.575000 14.384900 149.922000 -39.081100 -0.002282 -0.040193 0.011992 -0.011716 36.612800 -40.985400 0.000008 0.000006 3.781640 4.149190 -61.702100 -11.754300 -0.000006 -0.000006 -0.021743 -0.176756 -23.798100
0.000000 0.000000 0.000000 0.000000 0.000000 -0.000000 -82.916300 88.536900 183.330000 41.387600 87.623200 45.916900 15.735700 0.000005 -0.000001 62.848700 84.454000 -60.822000 8.984550 -0.406207 -0.000000 2.206610 -5.156420 4.151130 16.377300 -0.000001 -0.000001 -3.232200 -3.107510 2.129720 6.456720 -0.000001 -0.000000 -9.822910 -0.613948 2.772360 12.994200 -0.242716 4.980390 -90.841400 2.890000 -73.759500 5.348090 -0.000007 -0.000001 -61.844200 45.563600 -17.783200 24.328600 0.000019 0.000005 11.416600 17.612600 -33.718900 22.291600 -0.000001 0.000005 5.896750 5.292790 0.272717 12.994500 -0.242716 -4.980390 87.901700 8.567940 -76.183800 -5.348130 -0.000001 -0.000004 -65.032200 14.355600 12.850000 -24.328900 0.000322 -0.000009 0.603984 4.242760 -8.125810 -22.291500 -0.000108 -0.000004 15.048100 5.302240 0.008362 -2.192480 -6.469440 -0.000000 -174.704000 -11.319300 4.133050 39.081100 -0.000007 -0.000012 -0.010224 0.016512 31.766000 40.985400 -0.000006 -0.000013 2.356270 6.364400 -71.235700 11.754300 -0.000000 0.000003 -0.060487 -0.333367 -30.346000 -2.192510 6.469440 -0.000001 -173.134000 14.085800 148.216000 -39.081100 -0.002282 -0.040193 0.041591 -0.046867 39.263300 -40.985400 0.000008 0.000006 11.098300 1.192840 -60.895000 -11.754300 -0.000006 -0.000006 -0.010029 -0.103854 -20.804500
0.000000 0.000000 0.000000 0.000000 0.000000 -0.000000 -78.745000 87.513600 184.313000 -16.418200 88.933600 104.650000 15.735700 0.000005 -0.000001 63.233400 84.299700 -61.314000 8.984550 -0.406207 -0.000000 2.512980 -5.218190 3.951560 16.377300 -0.000001 -0.000001 -2.661280 -3.201770 2.090820 6.456720 -0.000001 -0.000000 -8.850920 -1.106520 3.438220 12.994200 -0.242716 4.980390 -90.869100 2.933240 -73.487600 5.348090 -0.000007 -0.000001 -63.429500 44.006100 -15.837700 24.328600 0.000019 0.000005 11.582700 18.625400 -32.690100 22.291600 -0.000001 0.000005 5.795420 5.298380 0.117749 12.994500 -0.242716 -4.980390 87.732400 9.126450 -75.983000 -5.348130 -0.000001 -0.000004 -64.879600 14.430300 12.199300 -24.328900 0.000322 -0.000009 0.535809 5.100020 -6.019660 -22.291500 -0.000108 -0.000004 15.203400 5.274180 0.784354 -2.192480 -6.469440 -0.000000 -173.960000 -9.310040 5.731500 39.081100 -0.000007 -0.000012 -0.009699 0.013879 34.951500 40.985400 -0.000006 -0.000013 1.302300 7.118310 -69.753100 11.754300 -0.000000 0.000003 -0.110849 -0.470724 -36.279800 -2.192510 6.469440 -0.000001 -175.150000 10.790000 149.535000 -39.081100 -0.002282 -0.040193 0.059585 -0.055270 45.540300 -40.985400 0.000008 0.000006 8.665320 -3.849140 -66.966200 -11.754300 -0.000006 -0.000006 -0.007248 -0.081777 -19.902400
0.000000 0.000000 0.000000 0.000000 0.000000 -0.000000 -74.359500 86.786300 185.383000 -68.113500 87.167600 157.644000 15.735700 0.000005 -0.000001 63.266200 84.014200 -61.149000 8.984550 -0.406207 -0.000000 3.042550 -5.467170 4.377760 16.377300 -0.000001 -0.000001 -1.953360 -3.413770 2.123400 6.456720 -0.000001 -0.000000 -8.077400 -1.394980 3.928670 12.994200 -0.242716 4.980390 -91.054900 3.481140 -73.129800 5.348090 -0.000007 -0.000001 -65.004800 41.383900 -13.875800 24.328600 0.000019 0.000005 11.000200 19.454300 -30.268800 22.291600 -0.000001 0.000005 6.873750 5.290420 0.337362 12.994500 -0.242716 -4.980390 87.397000 10.173000 -75.565700 -5.348130 -0.000001 -0.000004 -64.157600 15.018400 10.536900 -24.328900 0.000322 -0.000009 0.479284 6.412860 -4.295060 -22.291500 -0.000108 -0.000004 15.194500 5.240450 1.684820 -2.192480 -6.469440 -0.000000 -172.259000 -7.511250 5.452480 39.081100 -0.000007 -0.000012 0.019754 -0.022698 41.030800 40.985400 -0.000006 -0.000013 1.309430 7.847480 -64.870500 11.754300 -0.000000 0.000003 -0.200513 -0.645967 -44.267300 -2.192510 6.469440 -0.000001 -175.185000 10.672700 152.796000 -39.081100 -0.002282 -0.040193 0.098452 -0.083702 48.677300 -40.985400 0.000008 0.000006 8.143570 -6.731680 -72.364000 -11.754300 -0.000006 -0.000006 -0.002246 -0.031758 -17.864500
